<?xml version="1.0" standalone="no"?>
<!DOCTYPE svg PUBLIC "-//W3C//DTD SVG 1.1//EN" "http://www.w3.org/Graphics/SVG/1.1/DTD/svg11.dtd" >
<svg xmlns="http://www.w3.org/2000/svg">
<metadata>Generated by IcoMoon</metadata>
<defs>
<font id="icomoon" horiz-adv-x="1024">
<font-face units-per-em="1024" ascent="960" descent="-64" />
<missing-glyph horiz-adv-x="1024" />
<glyph unicode="&#x20;" horiz-adv-x="512" d="" />
<glyph unicode="&#xe600;" glyph-name="location" horiz-adv-x="640" d="M320 960c-177 0-320-143-320-320s160-416 320-704c160 288 320 527 320 704s-143 320-320 320zM320 512c-71 0-128 57-128 128s57 128 128 128 128-57 128-128-57-128-128-128z" />
<glyph unicode="&#xe601;" glyph-name="youtube" d="M731.429 438.857q0 21.143-17.143 30.857l-292.571 182.857q-17.714 11.429-37.143 1.143-18.857-10.286-18.857-32v-365.714q0-21.714 18.857-32 9.143-4.571 17.714-4.571 11.429 0 19.429 5.714l292.571 182.857q17.143 9.714 17.143 30.857zM1024 438.857q0-54.857-0.571-85.714t-4.857-78-12.857-84.286q-9.143-41.714-39.429-70.286t-70.857-33.143q-126.857-14.286-383.429-14.286t-383.429 14.286q-40.571 4.571-71.143 33.143t-39.714 70.286q-8 37.143-12.286 84.286t-4.857 78-0.571 85.714 0.571 85.714 4.857 78 12.857 84.286q9.143 41.714 39.429 70.286t70.857 33.143q126.857 14.286 383.429 14.286t383.429-14.286q40.571-4.571 71.143-33.143t39.714-70.286q8-37.143 12.286-84.286t4.857-78 0.571-85.714z" />
<glyph unicode="&#xe602;" glyph-name="menu" d="M128 170.667h768v85.333h-768v-85.333zM128 384h768v85.333h-768v-85.333zM128 682.667v-85.333h768v85.333h-768z" />
<glyph unicode="&#xe603;" glyph-name="social-facebook" d="M554.667 512h128v-128h-128v-298.667h-128v298.667h-128v128h128v53.547c0 50.731 15.957 114.816 47.701 149.845 31.744 35.115 71.381 52.608 118.869 52.608h89.429v-128h-89.6c-21.248 0-38.4-17.152-38.4-38.357v-89.643z" />
<glyph unicode="&#xe604;" glyph-name="social-twitter" d="M805.973 639.488c34.475 21.163 57.301 50.048 68.48 86.784-33.536-17.792-66.944-29.995-100.309-36.736-29.995 32.256-67.968 48.64-113.493 48.64-44.501 0-82.091-15.616-112.768-45.995-30.507-30.592-45.909-67.755-45.909-111.147 0-13.184 1.664-24.96 4.992-34.944-131.243 4.48-239.872 58.923-325.461 163.712-14.507-25.643-21.76-51.755-21.76-78.763 0-55.509 23.424-99.499 70.187-131.797-26.667 2.261-50.176 9.003-70.187 20.053 0-39.637 11.648-72.747 34.987-101.888 23.424-28.843 53.504-47.232 90.24-55.083-13.312-3.413-27.349-5.035-41.771-5.035-13.312 0-22.741 1.109-28.331 3.541 9.813-32.299 28.331-58.496 55.083-78.549 26.667-20.139 57.344-30.763 91.819-31.701-56.832-44.587-121.813-66.645-195.328-66.645-18.005 0-30.763 0.256-38.485 1.621 72.405-47.019 153.003-70.357 242.176-70.357 91.264 0 171.904 23.125 242.091 69.376 70.187 45.995 121.984 102.741 155.264 169.557 33.451 66.731 50.005 136.192 50.005 208.725v19.968c32.341 24.32 58.496 51.712 78.507 81.963-29.013-12.501-59.008-20.992-90.027-25.301z" />
<glyph unicode="&#xe605;" glyph-name="close" d="M810.667 768q18.333 0 30.5-12.167t12.167-30.5q0-18-12.333-30.333l-268.667-268.333 268.667-268.333q12.333-12.333 12.333-30.333 0-18.333-12.167-30.5t-30.5-12.167q-18 0-30.333 12.333l-268.333 268.667-268.333-268.667q-12.333-12.333-30.333-12.333-18.333 0-30.5 12.167t-12.167 30.5q0 18 12.333 30.333l268.667 268.333-268.667 268.333q-12.333 12.333-12.333 30.333 0 18.333 12.167 30.5t30.5 12.167q18 0 30.333-12.333l268.333-268.667 268.333 268.667q12.333 12.333 30.333 12.333z" />
<glyph unicode="&#xe606;" glyph-name="arrow-right" d="M389.171 285.798c-13.722-13.875-13.722-36.301 0-50.125 13.67-13.875 35.891-13.875 49.613 0l196.096 200.038c13.722 13.875 13.722 36.301 0 50.125l-196.096 200.090c-13.722 13.875-35.891 13.875-49.613 0s-13.722-36.25-0.051-50.074l160.819-175.053-160.768-175.002z" />
<glyph unicode="&#xe607;" glyph-name="arrow-left" d="M634.829 285.798c13.722-13.875 13.722-36.301 0-50.125-13.722-13.875-35.891-13.875-49.613 0l-196.096 200.038c-13.722 13.875-13.722 36.301 0 50.125l196.096 200.090c13.722 13.875 35.891 13.875 49.613 0s13.722-36.25 0-50.125l-160.768-175.002 160.768-175.002z" />
<glyph unicode="&#xe608;" glyph-name="arrow-down" d="M687.002 583.629c13.875 13.722 36.301 13.722 50.125 0 13.875-13.722 13.875-35.891 0-49.613l-200.038-196.096c-13.875-13.722-36.301-13.722-50.125 0l-200.090 196.096c-13.824 13.722-13.824 35.891 0 49.613 13.875 13.722 36.25 13.722 50.125 0l175.002-160.768 175.002 160.768z" />
<glyph unicode="&#xe609;" glyph-name="arrow-up" d="M336.947 337.971c-13.875-13.722-36.25-13.722-50.125 0-13.824 13.722-13.875 35.891 0 49.664l200.090 195.994c13.875 13.722 36.301 13.722 50.125 0l200.090-196.045c13.875-13.773 13.875-35.942 0-49.664s-36.25-13.722-50.125 0l-175.053 160.819-175.002-160.768z" />
<glyph unicode="&#xe60e;" glyph-name="staff" horiz-adv-x="1126" d="M768 590.507c0-84.831-68.769-153.6-153.6-153.6s-153.6 68.769-153.6 153.6c0 84.831 68.769 153.6 153.6 153.6s153.6-68.769 153.6-153.6zM337.92 744.107c0-79.176-64.184-143.36-143.36-143.36s-143.36 64.184-143.36 143.36c0 79.176 64.184 143.36 143.36 143.36s143.36-64.184 143.36-143.36zM1075.2 160.427c0-113.108-91.692-204.8-204.8-204.8s-204.8 91.692-204.8 204.8c0 113.108 91.692 204.8 204.8 204.8s204.8-91.692 204.8-204.8z" />
<glyph unicode="&#xe61d;" glyph-name="envelope" d="M0 149.334c0-47.146 38.186-85.334 85.334-85.334h853.334c47.146 0 85.334 38.186 85.334 85.334l-0.002 576c0 47.146-38.186 85.334-85.334 85.334l-853.332-0.002c-47.146 0-85.334-38.186-85.334-85.334v-575.998zM314.026 436.694l-195.2 196.48c-16.192 16.214-16.192 42.454 0 58.666 16.234 16.214 42.474 16.214 58.666 0l311.468-311.872c12.586-12.374 33.302-12.374 45.674 0l311.872 311.872c16.214 16.214 42.454 16.214 58.666 0 16.214-16.214 16.214-42.454 0-58.666l-195.414-196.48 195.414-195.178c16.214-16.214 16.214-42.454 0-58.666s-42.454-16.214-58.666 0l-195.2 194.986c0 0-60.992-62.080-72.086-73.174-17.3-16.876-41.194-27.328-67.22-27.328-26.454 0-50.346 10.666-67.626 27.968-11.306 11.094-71.894 72.512-71.894 72.512l-195.008-194.986c-16.192-16.214-42.432-16.214-58.666 0-16.192 16.214-16.192 42.454 0 58.666l195.22 195.2z" />
<glyph unicode="&#xe900;" glyph-name="logo-lider" horiz-adv-x="3338" d="M1742.328 856.136h-67.248v-91.701h131.439v33.624c0 15.284-6.113 30.567-18.34 42.794-12.227 9.17-27.51 15.284-45.851 15.284zM1742.328 706.357h-67.248v-547.152h131.439v489.075c0 15.284-6.113 30.567-18.34 42.794-12.227 9.17-27.51 15.284-45.851 15.284zM1607.833 269.246h-290.388v437.11h-58.078c-18.34 0-30.567-6.113-42.794-15.284-12.227-12.227-18.34-24.454-18.34-39.737v-489.075h409.6v106.985zM3301.254 706.357c-162.006 0-293.445-122.269-293.445-275.104v-275.104h119.212v275.104c0 88.645 79.475 162.006 174.233 162.006h36.681v113.099h-36.681zM1247.14 76.673c3.057 0 15.284 0 24.454-9.17 3.057-3.057 6.113-6.113 6.113-12.227l12.227 3.057c0 3.057-3.057 6.113-3.057 6.113-9.17 12.227-18.34 15.284-24.454 18.34-9.17 3.057-15.284 3.057-18.34 3.057-21.397 0-30.567-9.17-36.681-15.284-12.227-15.284-12.227-30.567-12.227-36.681 0-27.51 18.34-42.794 27.51-45.851 6.113-3.057 15.284-6.113 21.397-6.113 18.34 0 27.51 6.113 33.624 12.227 3.057 3.057 3.057 3.057 3.057 6.113v-15.284h12.227v51.964h-45.851v-12.227h36.681c0-6.113 0-18.34-12.227-24.454-9.17-6.113-18.34-6.113-21.397-6.113-18.34 0-24.454 9.17-27.51 15.284-6.113 9.17-9.17 21.397-9.17 27.51 0 15.284 6.113 24.454 9.17 30.567 3.057 3.057 9.17 9.17 24.454 9.17zM1519.188 24.709c0-9.17 0-21.397-9.17-27.51-6.113-3.057-12.227-3.057-15.284-3.057 0 0-6.113 0-9.17 0s-6.113 3.057-9.17 6.113-6.113 12.227-6.113 12.227c0 3.057 0 9.17 0 12.227v61.134h-12.227v-61.134c0-9.17 0-12.227 0-18.34 3.057-9.17 9.17-15.284 18.34-21.397 6.113-3.057 12.227-3.057 15.284-3.057 12.227 0 18.34 3.057 24.454 6.113 12.227 6.113 12.227 15.284 15.284 21.397 0 6.113 0 9.17 0 12.227v64.191h-12.227v-61.134zM1953.242 12.482c-6.113-9.17-15.284-15.284-18.34-15.284-6.113 0-9.17 0-9.17 0-6.113 0-12.227 0-15.284 3.057-9.17 3.057-21.397 15.284-21.397 39.737 0 6.113 0 30.567 21.397 36.681 6.113 3.057 12.227 3.057 15.284 3.057 15.284 0 24.454-9.17 27.51-12.227 0-3.057 3.057-6.113 6.113-9.17l12.227 3.057c-3.057 6.113-3.057 12.227-9.17 15.284-12.227 15.284-30.567 15.284-36.681 15.284-30.567 0-48.907-21.397-48.907-51.964 0-21.397 9.17-33.624 15.284-39.737s15.284-12.227 33.624-12.227c3.057 0 9.17 0 15.284 3.057 18.34 6.113 27.51 21.397 30.567 27.51 0 3.057 3.057 6.113 3.057 9.17l-18.34-3.057c-3.057-6.113-3.057-9.17-3.057-12.227zM2203.892 6.369l-51.964 79.475h-12.227v-100.872h12.227v82.531l51.964-82.531h12.227v100.872h-12.227zM2310.878 43.049c-3.057 0-6.113 0-9.17 3.057h-9.17c-6.113 0-12.227 3.057-18.34 9.17-3.057 3.057-3.057 6.113-3.057 6.113 0 3.057 0 6.113 3.057 9.17 3.057 6.113 12.227 6.113 18.34 6.113 15.284 0 21.397-9.17 24.454-15.284 0-3.057 0-3.057 0-6.113h12.227c0 6.113-3.057 9.17-3.057 15.284 0 3.057-3.057 6.113-9.17 9.17-9.17 6.113-18.34 6.113-27.51 6.113-3.057 0-15.284 0-27.51-9.17-6.113-6.113-9.17-12.227-9.17-18.34s3.057-15.284 12.227-21.397c6.113-3.057 15.284-6.113 21.397-6.113l9.17-3.057c3.057 0 9.17-3.057 12.227-6.113s6.113-6.113 6.113-12.227c0-12.227-12.227-18.34-15.284-18.34s-6.113 0-9.17 0c-12.227 0-18.34 3.057-21.397 9.17-6.113 6.113-6.113 15.284-6.113 18.34l-15.284-3.057c0-3.057 0-12.227 6.113-21.397 3.057-3.057 6.113-6.113 9.17-6.113 9.17-6.113 24.454-6.113 27.51-6.113 18.34 0 24.454 6.113 30.567 9.17 9.17 6.113 9.17 15.284 9.17 21.397s-3.057 12.227-3.057 15.284c0 12.227-12.227 12.227-15.284 15.284zM2359.785 73.616h30.567v-88.645h12.227v88.645h30.567v12.227h-73.361zM2644.060 24.709c0-9.17 0-21.397-9.17-27.51-6.113-3.057-12.227-3.057-15.284-3.057 0 0-6.113 0-9.17 0s-6.113 3.057-9.17 6.113-6.113 12.227-6.113 12.227c0 3.057 0 9.17 0 12.227v61.134h-12.227v-61.134c0-9.17 0-12.227 0-18.34 3.057-9.17 9.17-15.284 18.34-21.397 6.113-3.057 12.227-3.057 15.284-3.057 12.227 0 18.34 3.057 24.454 6.113 9.17 6.113 12.227 15.284 15.284 21.397 0 6.113 0 9.17 0 12.227v64.191h-12.227v-61.134zM2775.498 12.482c-6.113-9.17-15.284-15.284-18.34-15.284s-9.17 0-9.17 0-12.227 0-15.284 3.057-21.397 15.284-21.397 39.737c0 6.113 0 30.567 21.397 36.681 6.113 3.057 12.227 3.057 15.284 3.057 15.284 0 24.454-9.17 27.51-12.227 0-3.057 3.057-6.113 3.057-9.17l12.227 3.057c-3.057 6.113-6.113 12.227-9.17 15.284-12.227 15.284-30.567 15.284-36.681 15.284-30.567 0-48.907-21.397-48.907-51.964 0-21.397 9.17-33.624 15.284-39.737s15.284-12.227 33.624-12.227c3.057 0 9.17 0 15.284 3.057 18.34 6.113 27.51 21.397 30.567 27.51 0 3.057 3.057 6.113 3.057 9.17l-15.284 3.057c0-12.227-3.057-15.284-3.057-18.34zM2815.236 73.616h27.51v-88.645h15.284v88.645h30.567v12.227h-73.361zM1748.442-2.802c-6.113-3.057-12.227-3.057-15.284-3.057-6.113 0-12.227 0-12.227 3.057-3.057 0-6.113 3.057-9.17 6.113 0 0-3.057 3.057-6.113 6.113s-6.113 12.227-6.113 27.51c0 9.17 3.057 21.397 6.113 27.51s12.227 12.227 27.51 12.227c6.113 0 18.34 0 27.51-12.227 9.17-9.17 9.17-24.454 9.17-27.51 0-24.454-12.227-36.681-21.397-39.737zM1754.555 85.843c-6.113 3.057-12.227 3.057-18.34 3.057-12.227 0-27.51-6.113-36.681-15.284-12.227-12.227-12.227-30.567-12.227-36.681 0-21.397 9.17-33.624 15.284-39.737 12.227-12.227 27.51-12.227 33.624-12.227 21.397 0 33.624 12.227 39.737 18.34 9.17 12.227 9.17 30.567 9.17 33.624 0 21.397-12.227 39.737-30.567 48.907zM2066.34-2.802c-6.113-3.057-12.227-3.057-15.284-3.057-6.113 0-12.227 0-12.227 3.057-3.057 0-6.113 3.057-9.17 6.113 0 0-3.057 3.057-6.113 6.113s-6.113 12.227-6.113 27.51c0 9.17 3.057 21.397 6.113 27.51s12.227 12.227 27.51 12.227c6.113 0 18.34 0 27.51-12.227 6.113-9.17 9.17-24.454 9.17-27.51-3.057-24.454-12.227-36.681-21.397-39.737zM2069.397 85.843c-6.113 3.057-12.227 3.057-18.34 3.057-12.227 0-27.51-6.113-36.681-15.284-12.227-12.227-12.227-30.567-12.227-36.681 0-21.397 9.17-33.624 15.284-39.737 12.227-12.227 27.51-12.227 33.624-12.227 21.397 0 33.624 12.227 39.737 18.34 9.17 12.227 9.17 30.567 9.17 33.624 0 21.397-9.17 39.737-30.567 48.907zM1629.23 39.992c-3.057 0-6.113 0-12.227 0h-27.51v33.624h30.567c3.057 0 6.113 0 9.17 0 6.113 0 9.17-3.057 9.17-9.17 0-3.057 0-6.113 0-6.113 3.057-9.17 0-15.284-9.17-18.34zM1641.457 79.73c-6.113 3.057-12.227 3.057-21.397 3.057h-42.794v-97.815h12.227v42.794h30.567c6.113 0 12.227 0 15.284 0 12.227 3.057 18.34 15.284 18.34 27.51 0 6.113 0 18.34-12.227 24.454zM2222.233 308.983c-24.454-24.454-64.191-36.681-119.212-36.681h-103.928v324.012h119.212c48.907 0 82.531-12.227 106.985-39.737s33.624-67.248 33.624-125.325c0-58.078-12.227-100.872-36.681-122.269zM2310.878 639.109c-42.794 45.851-110.042 67.248-201.743 67.248h-171.176c-18.34 0-30.567-6.113-42.794-15.284-12.227-12.227-18.34-24.454-18.34-39.737v-489.075h201.743c55.021 0 97.815 3.057 125.325 12.227 27.51 6.113 55.021 21.397 79.475 36.681 30.567 21.397 55.021 51.964 70.304 91.701s24.454 82.531 24.454 131.439c0 88.645-21.397 158.949-67.248 204.8zM2576.812 550.464c27.51 27.51 67.248 42.794 116.155 42.794s88.645-15.284 116.155-42.794c15.284-18.34 27.51-39.737 33.624-67.248h-299.558c6.113 27.51 18.34 51.964 33.624 67.248zM2845.803 327.324c-15.284 0-30.567-6.113-39.737-15.284-27.51-27.51-67.248-42.794-113.099-42.794-48.907 0-88.645 15.284-116.155 42.794-15.284 15.284-24.454 36.681-30.567 58.078h409.6c3.057 18.34 3.057 39.737 3.057 61.134 0 85.588-21.397 155.893-67.248 204.8s-116.155 73.361-198.687 73.361c-82.531 0-152.836-24.454-198.687-73.361s-73.361-119.212-73.361-204.8c0-85.588 27.51-155.893 73.361-204.8s116.155-73.361 198.687-73.361c82.531 0 152.836 24.454 198.687 73.361 24.454 27.51 42.794 61.134 55.021 100.872h-100.872zM2475.94 39.992v33.624h24.454c6.113 0 12.227 0 18.34-3.057 9.17-6.113 9.17-12.227 9.17-15.284s0-6.113-3.057-9.17c-6.113-6.113-12.227-6.113-21.397-6.113h-27.51zM2527.904 33.879c12.227 6.113 12.227 21.397 12.227 24.454 0 9.17-3.057 15.284-6.113 18.34-3.057 6.113-9.17 9.17-24.454 9.17h-45.851v-97.815h12.227v42.794h24.454l27.51-42.794h15.284l-27.51 42.794c6.113 0 9.17 0 12.227 3.057zM2974.185-2.802c-6.113-3.057-12.227-3.057-15.284-3.057-6.113 0-12.227 0-12.227 3.057-3.057 0-6.113 3.057-9.17 6.113 0 0-3.057 3.057-6.113 6.113s-6.113 12.227-6.113 27.51c0 9.17 3.057 21.397 9.17 27.51 3.057 6.113 12.227 12.227 27.51 12.227 6.113 0 18.34 0 27.51-12.227 6.113-9.17 9.17-24.454 9.17-27.51-3.057-24.454-15.284-36.681-24.454-39.737zM2977.242 85.843c-6.113 3.057-12.227 3.057-18.34 3.057-15.284 0-27.51-6.113-36.681-15.284-12.227-12.227-12.227-30.567-12.227-36.681 0-21.397 9.17-33.624 15.284-39.737 12.227-12.227 27.51-12.227 33.624-12.227 21.397 0 33.624 12.227 39.737 18.34 9.17 12.227 9.17 30.567 9.17 33.624 0 21.397-9.17 39.737-30.567 48.907zM3059.773 39.992v33.624h24.454c6.113 0 12.227 0 18.34-3.057 6.113-6.113 9.17-12.227 9.17-15.284s0-6.113-3.057-9.17c-6.113-6.113-15.284-6.113-21.397-6.113h-27.51zM3111.737 33.879c12.227 6.113 12.227 21.397 12.227 24.454 0 9.17-3.057 15.284-6.113 18.34-3.057 6.113-12.227 9.17-24.454 9.17h-45.851v-97.815h12.227v42.794h24.454l27.51-42.794h15.284l-27.51 42.794c6.113 0 9.17 0 12.227 3.057zM1351.069 39.992v33.624h24.454c6.113 0 12.227 0 18.34-3.057 6.113-6.113 9.17-12.227 9.17-15.284s0-6.113-3.057-9.17c-6.113-6.113-15.284-6.113-21.397-6.113h-27.51zM1403.033 33.879c12.227 6.113 12.227 21.397 12.227 24.454 0 9.17-3.057 15.284-6.113 18.34-3.057 6.113-9.17 9.17-24.454 9.17h-45.851v-97.815h12.227v42.794h24.454l27.51-42.794h15.284l-27.51 42.794c6.113 0 9.17 0 12.227 3.057zM959.809 470.989l-213.97 122.269c-15.284 6.113-30.567 9.17-45.851 9.17-27.51 0-48.907-9.17-48.907-9.17l-125.325-73.361 61.134-33.624c0 0 6.113-3.057 15.284-12.227 3.057 0 3.057-3.057 6.113-3.057v0 0c3.057-3.057 3.057-3.057 3.057-3.057v0 0c0 0 3.057-3.057 3.057-3.057l3.057-3.057c0 0 0-3.057 3.057-3.057 0 0 0-3.057 3.057-3.057v0 0c0 0 0 0 3.057-3.057 0 0 3.057-3.057 3.057-3.057v0 0c0 0 0 0 0-3.057 0 0 3.057-3.057 3.057-3.057v0 0c0 0 0 0 0-3.057s3.057-3.057 3.057-6.113v0c0 0 0 0 0-3.057s0-3.057 3.057-6.113v-3.057c0 0 0 0 0-3.057s0-3.057 3.057-6.113v-3.057c0 0 0 0 0-3.057s0-6.113 3.057-9.17c0-3.057 0-9.17 0-12.227v-250.651c0-3.057-6.113-61.134-61.134-100.872l-61.134-33.624 119.212-70.304c21.397-6.113 39.737-12.227 58.078-12.227 30.567 0 45.851 9.17 48.907 9.17l210.913 119.212c48.907 33.624 51.964 88.645 51.964 88.645v247.594c3.057 51.964-48.907 88.645-51.964 88.645zM366.806 302.87v79.475c0 3.057 0 64.191 67.248 110.042l61.134 33.624 6.113 3.057 3.057 3.057 137.552 79.475c0 0 24.454 12.227 58.078 12.227 18.34 0 36.681-3.057 55.021-9.17l51.964-30.567v134.496c0 51.964-55.021 88.645-55.021 88.645l-213.97 122.269c-15.284 6.113-30.567 9.17-45.851 9.17-27.51 0-48.907-9.17-48.907-9.17l-207.857-119.212c-58.078-39.737-58.078-91.701-58.078-91.701v-247.594c0-48.907 51.964-88.645 51.964-88.645l137.552-79.475zM620.513 428.195v0c-3.057 0-3.057 3.057-6.113 6.113s-3.057 6.113-6.113 6.113-3.057 3.057-6.113 6.113-3.057 3.057-6.113 6.113-3.057 3.057-6.113 6.113-3.057 3.057-6.113 3.057-3.057 3.057-3.057 3.057c0 0-3.057 3.057-3.057 3.057l-3.057 3.057h-3.057l-67.248 39.737-61.134-36.681c-58.078-39.737-58.078-94.758-58.078-94.758v-110.042l-6.113 3.057-158.949 91.701c-3.057 3.057-61.134 42.794-61.134 103.928v64.191l-100.872-58.078c-58.078-36.681-58.078-91.701-58.078-91.701v-247.594c0-48.907 51.964-88.645 51.964-88.645l207.857-122.269c21.397-6.113 39.737-12.227 58.078-12.227 30.567 0 45.851 9.17 48.907 9.17l207.857 119.212c48.907 33.624 51.964 85.588 55.021 88.645v247.594c0 3.057 0 6.113 0 9.17 0 0 0 3.057 0 3.057v6.113c0 0 0 3.057 0 3.057 0 3.057 0 3.057 0 6.113v0 0c0 0 0 0 0 3.057s-3.057 3.057-3.057 6.113v0 0c-6.113 6.113-6.113 9.17-6.113 15.284v0c0 0 0 0 0 0z" />
<glyph unicode="&#xe901;" glyph-name="phone" d="M807.153-85.333c-42.165 0-96.376 12.047-150.588 30.118-120.471 48.188-252.988 132.518-367.435 252.988-114.447 114.447-204.8 246.965-252.988 367.435-42.165 120.471-42.165 216.847 6.024 265.035l18.071 18.071c30.118 36.141 78.306 90.353 144.565 90.353 54.212 0 96.376-30.118 138.541-84.329 120.471-144.565 72.282-210.824 0-283.106l-6.024-6.024c0-12.047 12.047-54.212 132.518-180.706 54.212-48.188 102.4-84.329 132.518-108.424 24.094-18.071 42.165-24.094 48.188-24.094l6.024 6.024c36.141 36.141 72.282 72.282 126.494 72.282 42.165 0 96.376-24.094 156.612-72.282 54.212-42.165 78.306-84.329 84.329-132.518 0-66.259-48.188-114.447-90.353-156.612l-18.071-18.071c-24.094-24.094-60.235-36.141-108.424-36.141zM210.824 878.432c-42.165 0-78.306-36.141-108.424-72.282-12.047-6.024-18.071-12.047-24.094-18.071-30.118-30.118-24.094-108.424 12.047-198.776 42.165-114.447 126.494-234.918 240.941-349.365 108.424-108.424 234.918-192.753 349.365-240.941 90.353-36.141 174.682-36.141 198.776-6.024l12.047 12.047c42.165 36.141 78.306 72.282 72.282 114.447 0 30.118-18.071 60.235-60.235 90.353-48.188 36.141-90.353 60.235-120.471 60.235s-54.212-18.071-84.329-54.212l-12.047-12.047c-6.024-6.024-18.071-12.047-36.141-12.047-24.094 0-48.188 12.047-78.306 30.118-36.141 24.094-84.329 66.259-144.565 120.471-132.518 132.518-180.706 216.847-138.541 259.012l12.047 12.047c54.212 54.212 90.353 90.353-6.024 204.8-30.118 42.165-60.235 60.235-84.329 60.235 0 0 0 0 0 0z" />
<glyph unicode="&#xe902;" glyph-name="search" horiz-adv-x="984" d="M979.827-53.208l-285.114 297.161c72.282 72.282 120.471 176.69 120.471 285.114-4.016 228.894-184.722 409.6-409.6 409.6s-405.584-180.706-405.584-405.584c0-224.878 180.706-405.584 405.584-405.584 96.376 0 188.737 36.141 257.004 92.361l289.129-301.176c4.016-4.016 8.031-4.016 12.047-4.016s8.031 0 12.047 4.016c12.047 8.031 12.047 20.078 4.016 28.11zM405.584 167.655c-200.784 0-365.427 164.643-365.427 365.427s164.643 365.427 365.427 365.427c200.784 0 365.427-164.643 365.427-365.427s-164.643-365.427-365.427-365.427z" />
<glyph unicode="&#xe903;" glyph-name="logo-modo" horiz-adv-x="2855" d="M1179.152 32.582c-2.069 4.137-6.206 6.206-12.412 8.275-4.137 2.069-10.343 4.137-14.481 4.137-2.069 0-6.206 0-8.275-2.069-2.069 0-6.206-2.069-8.275-4.137s-4.137-4.137-6.206-6.206c-2.069-2.069-2.069-6.206-2.069-8.275 0-4.137 0-6.206 2.069-8.275s4.137-4.137 6.206-6.206c2.069-2.069 6.206-2.069 8.275-4.137 4.137-2.069 6.206-2.069 10.343-4.137s10.343-4.137 14.481-4.137c4.137-2.069 10.343-4.137 14.481-8.275s8.275-6.206 10.343-12.412c2.069-4.137 4.137-10.343 4.137-18.618s-2.069-14.481-4.137-20.687c-2.069-6.206-6.206-10.343-12.412-14.481-4.137-4.137-10.343-6.206-16.549-8.275s-12.412-2.069-20.687-2.069c-10.343 0-18.618 2.069-26.893 6.206s-16.549 8.275-22.756 14.481l18.618 16.549c4.137-4.137 8.275-8.275 14.481-12.412 6.206-2.069 12.412-4.137 16.549-4.137 2.069 0 6.206 0 8.275 2.069 4.137 0 6.206 2.069 8.275 4.137s4.137 4.137 6.206 6.206c2.069 2.069 2.069 6.206 2.069 10.343s0 6.206-2.069 10.343c-2.069 2.069-4.137 4.137-6.206 6.206s-6.206 4.137-10.343 4.137c-4.137 2.069-8.275 2.069-12.412 4.137s-8.275 2.069-12.412 4.137c-4.137 2.069-8.275 4.137-12.412 8.275s-6.206 6.206-8.275 12.412-4.137 10.343-4.137 16.549 2.069 14.481 4.137 18.618c2.069 6.206 6.206 10.343 12.412 12.412 4.137 4.137 10.343 6.206 16.549 8.275s12.412 2.069 18.618 2.069c8.275 0 14.481-2.069 22.756-4.137s14.481-6.206 20.687-12.412l-16.549-14.481zM1206.044-2.586v18.618h16.549v28.962h24.824v-28.962h24.824v-18.618h-24.824v-45.511c0-4.137 0-8.275 2.069-10.343s4.137-4.137 10.343-4.137c2.069 0 4.137 0 6.206 0s4.137 0 4.137 2.069v-18.618c-2.069 0-4.137-2.069-8.275-2.069-2.069 0-6.206 0-8.275 0-6.206 0-12.412 0-16.549 2.069s-8.275 4.137-10.343 8.275c-2.069 4.137-4.137 6.206-4.137 10.343s-2.069 8.275-2.069 12.412v45.511h-14.481zM1379.814-81.196h-22.756v16.549c-2.069-4.137-6.206-8.275-10.343-12.412-6.206-4.137-12.412-6.206-18.618-6.206s-12.412 2.069-16.549 4.137c-4.137 2.069-8.275 6.206-10.343 8.275-2.069 4.137-4.137 8.275-6.206 12.412s-2.069 10.343-2.069 14.481v62.061h24.824v-53.786c0-2.069 0-6.206 0-8.275 0-4.137 2.069-6.206 2.069-8.275 2.069-2.069 4.137-4.137 6.206-6.206s6.206-2.069 10.343-2.069c4.137 0 6.206 0 10.343 2.069 2.069 2.069 6.206 4.137 6.206 6.206 2.069 2.069 4.137 6.206 4.137 8.275 0 4.137 2.069 6.206 2.069 10.343v53.786h24.824v-101.366zM1508.073-81.196h-22.756v14.481c-4.137-6.206-8.275-10.343-14.481-12.412s-12.412-4.137-18.618-4.137c-8.275 0-14.481 2.069-20.687 4.137s-10.343 6.206-14.481 10.343c-4.137 4.137-8.275 10.343-10.343 16.549s-4.137 12.412-4.137 20.687c0 6.206 2.069 14.481 4.137 20.687s6.206 12.412 10.343 16.549c4.137 4.137 8.275 8.275 14.481 10.343s12.412 4.137 18.618 4.137c4.137 0 8.275 0 12.412-2.069 4.137 0 6.206-2.069 10.343-4.137 2.069-2.069 4.137-4.137 6.206-4.137 2.069-2.069 4.137-4.137 4.137-4.137v0 68.267h24.824v-155.152zM1427.394-31.547c0-4.137 0-8.275 2.069-12.412s2.069-6.206 6.206-10.343c2.069-2.069 6.206-6.206 8.275-8.275 4.137-2.069 8.275-2.069 12.412-2.069s8.275 0 12.412 2.069c4.137 2.069 6.206 4.137 8.275 8.275 2.069 2.069 4.137 6.206 6.206 10.343s2.069 8.275 2.069 10.343 0 8.275-2.069 12.412-4.137 6.206-6.206 10.343c-2.069 2.069-6.206 6.206-8.275 8.275-4.137 2.069-8.275 2.069-12.412 2.069s-8.275 0-12.412-2.069c-4.137-2.069-6.206-4.137-8.275-8.275-2.069-2.069-4.137-6.206-6.206-10.343s-2.069-6.206-2.069-10.343zM1632.194-33.616v-4.137c0-2.069 0-2.069 0-4.137h-74.473c0-4.137 2.069-6.206 2.069-10.343 2.069-2.069 4.137-6.206 6.206-8.275s6.206-4.137 8.275-4.137c4.137-2.069 6.206-2.069 10.343-2.069 6.206 0 10.343 2.069 16.549 4.137 4.137 2.069 8.275 6.206 10.343 8.275l16.549-12.412c-10.343-12.412-22.756-20.687-41.374-20.687-8.275 0-14.481 2.069-20.687 4.137s-12.412 6.206-16.549 10.343c-4.137 4.137-8.275 10.343-10.343 16.549s-4.137 14.481-4.137 20.687c0 8.275 2.069 14.481 4.137 20.687s6.206 12.412 10.343 16.549c4.137 4.137 10.343 8.275 16.549 10.343s12.412 4.137 20.687 4.137c6.206 0 12.412-2.069 18.618-4.137s10.343-6.206 14.481-10.343c4.137-4.137 8.275-10.343 10.343-16.549 0-2.069 2.069-10.343 2.069-18.618zM1607.37-23.272c0 4.137 0 6.206-2.069 8.275 0 2.069-2.069 6.206-4.137 8.275s-4.137 4.137-8.275 6.206c-2.069 2.069-6.206 2.069-10.343 2.069-8.275 0-14.481-2.069-18.618-6.206s-8.275-10.343-8.275-16.549h51.717zM1657.018 16.033h22.756v-16.549c2.069 4.137 6.206 8.275 10.343 12.412 6.206 4.137 12.412 6.206 18.618 6.206s12.412-2.069 16.549-4.137c4.137-2.069 8.275-6.206 10.343-8.275 2.069-4.137 4.137-8.275 6.206-12.412s2.069-10.343 2.069-14.481v-62.061h-24.824v53.786c0 2.069 0 6.206 0 8.275 0 4.137-2.069 6.206-2.069 8.275-2.069 2.069-4.137 4.137-6.206 6.206s-6.206 2.069-10.343 2.069c-4.137 0-8.275 0-10.343-2.069s-6.206-4.137-6.206-6.206c-2.069-2.069-4.137-6.206-4.137-8.275 0-4.137-2.069-6.206-2.069-10.343v-53.786h-24.824v101.366zM1760.453-2.586v18.618h18.618v28.962h24.824v-28.962h24.824v-18.618h-24.824v-45.511c0-4.137 0-8.275 2.069-10.343s4.137-4.137 10.343-4.137c2.069 0 4.137 0 6.206 0s4.137 0 4.137 2.069v-18.618c-2.069 0-4.137-2.069-8.275-2.069-2.069 0-6.206 0-8.275 0-6.206 0-12.412 0-16.549 2.069s-8.275 4.137-10.343 8.275c-2.069 4.137-4.137 6.206-4.137 10.343s-2.069 8.275-2.069 12.412v45.511h-16.549zM1896.986 63.612h49.648c6.206 0 12.412 0 20.687-2.069 6.206-2.069 12.412-4.137 16.549-6.206 4.137-4.137 8.275-8.275 12.412-12.412 2.069-6.206 4.137-12.412 4.137-18.618 0-10.343-2.069-18.618-8.275-24.824s-14.481-10.343-24.824-12.412l39.305-64.129h-31.030l-33.099 62.061h-18.618v-62.061h-24.824v140.671zM1944.566 1.552c4.137 0 8.275 0 10.343 0 4.137 0 6.206 2.069 10.343 2.069 2.069 2.069 6.206 4.137 8.275 6.206s2.069 6.206 2.069 10.343c0 4.137 0 6.206-2.069 10.343-2.069 2.069-4.137 4.137-6.206 6.206s-6.206 2.069-10.343 2.069c-4.137 0-6.206 0-10.343 0h-22.756v-41.374h20.687zM2116.267-33.616v-4.137c0-2.069 0-2.069 0-4.137h-74.473c0-4.137 2.069-6.206 2.069-10.343 2.069-2.069 4.137-6.206 6.206-8.275s6.206-4.137 8.275-4.137c4.137-2.069 6.206-2.069 10.343-2.069 6.206 0 10.343 2.069 16.549 4.137 4.137 2.069 8.275 6.206 10.343 8.275l16.549-12.412c-10.343-12.412-22.756-20.687-41.374-20.687-8.275 0-14.481 2.069-20.687 4.137s-12.412 6.206-16.549 10.343c-4.137 4.137-8.275 10.343-10.343 16.549s-4.137 14.481-4.137 20.687c0 8.275 2.069 14.481 4.137 20.687s6.206 12.412 10.343 16.549c4.137 4.137 10.343 8.275 16.549 10.343s12.412 4.137 20.687 4.137c6.206 0 12.412-2.069 18.618-4.137s10.343-6.206 14.481-10.343c4.137-4.137 8.275-10.343 10.343-16.549 0-2.069 2.069-10.343 2.069-18.618zM2091.442-23.272c0 4.137 0 6.206-2.069 8.275 0 2.069-2.069 6.206-4.137 8.275s-4.137 4.137-8.275 6.206c-2.069 2.069-6.206 2.069-10.343 2.069-8.275 0-14.481-2.069-18.618-6.206s-8.275-10.343-8.275-16.549h51.717zM2192.808-8.792c-2.069 2.069-6.206 6.206-8.275 8.275-4.137 2.069-8.275 4.137-12.412 4.137s-8.275 0-10.343-2.069c-4.137-2.069-4.137-4.137-4.137-8.275s2.069-6.206 6.206-8.275c4.137-2.069 8.275-4.137 16.549-4.137 4.137 0 8.275-2.069 10.343-4.137 4.137-2.069 6.206-4.137 10.343-6.206 2.069-2.069 6.206-4.137 8.275-8.275s2.069-8.275 2.069-12.412c0-6.206-2.069-10.343-4.137-14.481s-6.206-8.275-8.275-10.343c-4.137-2.069-8.275-4.137-12.412-6.206s-10.343-2.069-14.481-2.069c-8.275 0-14.481 2.069-22.756 4.137-6.206 2.069-12.412 6.206-18.618 12.412l16.549 14.481c2.069-4.137 6.206-6.206 10.343-8.275s8.275-4.137 14.481-4.137c2.069 0 4.137 0 6.206 0s4.137 2.069 4.137 2.069c2.069 0 2.069 2.069 4.137 4.137 0 2.069 2.069 4.137 2.069 6.206 0 4.137-2.069 6.206-6.206 8.275s-10.343 4.137-16.549 6.206c-4.137 0-8.275 2.069-10.343 4.137-4.137 2.069-6.206 2.069-10.343 4.137-2.069 2.069-4.137 4.137-6.206 8.275s-2.069 6.206-2.069 12.412c0 6.206 2.069 10.343 4.137 14.481s6.206 6.206 8.275 10.343c4.137 2.069 8.275 4.137 12.412 6.206s10.343 2.069 14.481 2.069c6.206 0 14.481-2.069 20.687-4.137s12.412-6.206 16.549-10.343l-20.687-18.618zM2227.976 49.132c0 4.137 2.069 8.275 4.137 10.343s6.206 4.137 10.343 4.137c4.137 0 8.275-2.069 10.343-4.137s4.137-6.206 4.137-10.343c0-4.137-2.069-8.275-4.137-10.343s-6.206-4.137-10.343-4.137c-4.137 0-8.275 2.069-10.343 4.137-2.069 4.137-4.137 8.275-4.137 10.343zM2232.113 16.033h24.824v-99.297h-24.824v99.297zM2385.196-81.196h-22.756v14.481c-4.137-6.206-8.275-10.343-14.481-12.412s-12.412-4.137-18.618-4.137c-8.275 0-14.481 2.069-20.687 4.137s-10.343 6.206-14.481 10.343c-4.137 4.137-8.275 10.343-10.343 16.549s-4.137 12.412-4.137 20.687c0 6.206 2.069 14.481 4.137 20.687s6.206 12.412 10.343 16.549c4.137 4.137 8.275 8.275 14.481 10.343s12.412 4.137 18.618 4.137c4.137 0 8.275 0 12.412-2.069 4.137 0 6.206-2.069 10.343-4.137 2.069-2.069 4.137-4.137 6.206-4.137 2.069-2.069 4.137-4.137 4.137-4.137v0 68.267h24.824v-155.152zM2304.517-31.547c0-4.137 0-8.275 2.069-12.412s2.069-6.206 6.206-10.343c2.069-2.069 6.206-6.206 8.275-8.275 4.137-2.069 8.275-2.069 12.412-2.069s8.275 0 12.412 2.069c4.137 2.069 6.206 4.137 8.275 8.275 2.069 2.069 4.137 6.206 6.206 10.343s2.069 8.275 2.069 10.343 0 8.275-2.069 12.412-4.137 6.206-6.206 10.343c-2.069 2.069-6.206 6.206-8.275 8.275-4.137 2.069-8.275 2.069-12.412 2.069s-8.275 0-12.412-2.069c-4.137-2.069-6.206-4.137-8.275-8.275-2.069-2.069-4.137-6.206-6.206-10.343s-2.069-6.206-2.069-10.343zM2509.317-33.616v-4.137c0-2.069 0-2.069 0-4.137h-74.473c0-4.137 2.069-6.206 2.069-10.343 2.069-2.069 4.137-6.206 6.206-8.275s6.206-4.137 8.275-4.137c4.137-2.069 6.206-2.069 10.343-2.069 6.206 0 10.343 2.069 16.549 4.137 4.137 2.069 8.275 6.206 10.343 8.275l16.549-12.412c-10.343-12.412-22.756-20.687-41.374-20.687-8.275 0-14.481 2.069-20.687 4.137s-12.412 6.206-16.549 10.343c-4.137 4.137-8.275 10.343-10.343 16.549s-4.137 14.481-4.137 20.687c0 8.275 2.069 14.481 4.137 20.687s6.206 12.412 10.343 16.549c4.137 4.137 10.343 8.275 16.549 10.343s12.412 4.137 20.687 4.137c6.206 0 12.412-2.069 18.618-4.137s10.343-6.206 14.481-10.343c4.137-4.137 8.275-10.343 10.343-16.549 0-2.069 2.069-10.343 2.069-18.618zM2484.493-23.272c0 4.137 0 6.206-2.069 8.275 0 2.069-2.069 6.206-4.137 8.275s-4.137 4.137-8.275 6.206c-2.069 2.069-6.206 2.069-10.343 2.069-8.275 0-14.481-2.069-18.618-6.206s-8.275-10.343-8.275-16.549h51.717zM2532.073 16.033h22.756v-16.549c2.069 4.137 6.206 8.275 10.343 12.412 6.206 4.137 12.412 6.206 18.618 6.206s12.412-2.069 16.549-4.137c4.137-2.069 8.275-6.206 10.343-8.275 2.069-4.137 4.137-8.275 6.206-12.412s2.069-10.343 2.069-14.481v-62.061h-24.824v53.786c0 2.069 0 6.206 0 8.275 0 4.137-2.069 6.206-2.069 8.275-2.069 2.069-4.137 4.137-6.206 6.206s-6.206 2.069-10.343 2.069c-4.137 0-8.275 0-10.343-2.069s-6.206-4.137-6.206-6.206c-2.069-2.069-4.137-6.206-4.137-8.275 0-4.137-2.069-6.206-2.069-10.343v-53.786h-24.824v101.366zM2718.255-10.86c-2.069 2.069-4.137 4.137-8.275 6.206s-8.275 2.069-12.412 2.069c-4.137 0-8.275 0-12.412-2.069s-6.206-4.137-8.275-8.275c-2.069-2.069-4.137-6.206-4.137-10.343-2.069-4.137-2.069-8.275-2.069-10.343 0-4.137 0-8.275 2.069-10.343 2.069-4.137 2.069-6.206 6.206-10.343 2.069-2.069 6.206-6.206 8.275-8.275 4.137-2.069 8.275-2.069 12.412-2.069s8.275 0 12.412 2.069c4.137 2.069 6.206 4.137 8.275 6.206l14.481-16.549c-4.137-4.137-10.343-8.275-16.549-10.343s-12.412-4.137-20.687-4.137c-8.275 0-14.481 2.069-20.687 4.137s-12.412 6.206-16.549 10.343c-4.137 4.137-8.275 10.343-12.412 16.549-2.069 6.206-4.137 14.481-4.137 22.756s2.069 14.481 4.137 20.687c2.069 6.206 6.206 12.412 10.343 16.549s10.343 8.275 16.549 10.343c6.206 2.069 12.412 4.137 20.687 4.137 6.206 0 14.481-2.069 20.687-4.137s12.412-6.206 16.549-10.343l-14.481-14.481zM2846.513-33.616v-4.137c0-2.069 0-2.069 0-4.137h-74.473c0-4.137 2.069-6.206 2.069-10.343 2.069-2.069 4.137-6.206 6.206-8.275s6.206-4.137 8.275-4.137c4.137-2.069 6.206-2.069 10.343-2.069 6.206 0 10.343 2.069 16.549 4.137 4.137 2.069 8.275 6.206 10.343 8.275l16.549-12.412c-10.343-12.412-22.756-20.687-41.374-20.687-8.275 0-14.481 2.069-20.687 4.137s-12.412 6.206-16.549 10.343c-4.137 4.137-8.275 10.343-10.343 16.549s-4.137 14.481-4.137 20.687c0 8.275 2.069 14.481 4.137 20.687s6.206 12.412 10.343 16.549c4.137 4.137 10.343 8.275 16.549 10.343s12.412 4.137 20.687 4.137c6.206 0 12.412-2.069 18.618-4.137s10.343-6.206 14.481-10.343c4.137-4.137 8.275-10.343 10.343-16.549 0-2.069 2.069-10.343 2.069-18.618zM2821.689-23.272c0 4.137 0 6.206-2.069 8.275 0 2.069-2.069 6.206-4.137 8.275s-4.137 4.137-8.275 6.206c-2.069 2.069-6.206 2.069-10.343 2.069-8.275 0-14.481-2.069-18.618-6.206s-8.275-10.343-8.275-16.549h51.717zM781.964 208.421h-204.8v515.103h-2.069l-132.396-515.103h-138.602l-136.533 515.103h-2.069v-515.103h-165.495v719.903h287.547l103.434-382.707h2.069l99.297 382.707h289.616zM1479.111 928.324h264.792c103.434 0 186.182-14.481 264.792-88.954 74.473-70.335 109.64-169.632 109.64-273.067 0-95.16-33.099-192.388-99.297-260.655-70.335-74.473-161.358-97.228-260.655-97.228h-279.273v719.903zM1731.491 373.915c28.962 0 47.58-2.069 74.473 12.412 20.687 12.412 35.168 26.893 47.58 47.58 24.824 41.374 33.099 91.022 33.099 138.602s-14.481 111.709-43.442 151.014c-35.168 43.442-68.267 41.374-117.915 41.374h-24.824v-390.982h31.030zM2854.788 566.303c0-204.8-126.19-368.226-343.402-368.226s-343.402 163.426-343.402 368.226c0 215.143 124.121 372.364 343.402 372.364s343.402-157.22 343.402-372.364zM2401.745 566.303c0-68.267 8.275-202.731 107.572-202.731 101.366 0 107.572 132.396 107.572 202.731s-10.343 211.006-107.572 211.006c-95.16-2.069-107.572-142.739-107.572-211.006zM823.337 574.578c0 169.632 136.533 285.479 308.234 285.479 169.632 0 308.234-115.846 308.234-285.479 0-179.976-132.396-295.822-308.234-295.822s-308.234 115.846-308.234 295.822z" />
<glyph unicode="&#xe904;" glyph-name="down" horiz-adv-x="1869" d="M1846.19 916.244c-29.898 29.898-89.693 29.898-127.066 0l-784.818-784.818-784.818 784.818c-29.898 29.898-89.693 29.898-127.066 0-14.949-22.423-22.423-44.847-22.423-67.27s7.474-44.847 22.423-59.796l844.613-844.613c14.949-14.949 37.372-22.423 59.796-22.423s44.847 7.474 59.796 22.423l859.562 844.613c14.949 14.949 22.423 37.372 22.423 59.796s-7.474 44.847-22.423 67.27z" />
<glyph unicode="&#xe905;" glyph-name="mouse" horiz-adv-x="685" d="M342.498 938.667c-188.724 0-342.498-153.775-342.498-342.498v-342.498c0-188.724 153.775-342.498 342.498-342.498s342.498 153.775 342.498 342.498v342.498c0 188.724-153.775 342.498-342.498 342.498zM646.553 253.67c0-167.754-136.3-304.055-304.055-304.055s-304.055 136.3-304.055 304.055v342.498c0 167.754 136.3 304.055 304.055 304.055s304.055-136.3 304.055-304.055v-342.498zM342.498 823.336c-10.485 0-17.474-6.99-17.474-17.474v-171.249c0-10.485 6.99-17.474 17.474-17.474s17.474 6.99 17.474 17.474v171.249c0 10.485-6.99 17.474-17.474 17.474z" />
<glyph unicode="&#xe906;" glyph-name="up" horiz-adv-x="1932" d="M96.604-66.012c-19.321-19.321-57.962-19.321-77.283 0s-19.321 19.321-19.321 38.642 0 19.321 19.321 38.642l908.075 908.075c19.321 19.321 57.962 19.321 77.283 0l908.075-908.075c19.321-19.321 19.321-57.962 0-77.283s-57.962-19.321-77.283 0l-869.434 869.434-869.434-869.434z" />
<glyph unicode="&#xe908;" glyph-name="blogger" d="M695.242-85.333c177.853 0 323.368 145.516 323.368 323.368v264.084l-5.389 16.168-10.779 16.168-16.168 10.779c-16.168 16.168-113.179 0-140.126 21.558-16.168 16.168-21.558 48.505-26.947 86.232-10.779 80.842-16.168 80.842-26.947 107.789-43.116 97.011-167.074 167.074-253.305 177.853h-215.579c-177.853 0-323.368-145.516-323.368-323.368v-377.263c0-177.853 145.516-323.368 323.368-323.368h371.874zM328.758 674.583h177.853c32.337 0 64.674-26.947 64.674-59.284s-26.947-59.284-64.674-59.284h-177.853c-32.337-5.389-64.674 21.558-64.674 59.284 0 32.337 32.337 59.284 64.674 59.284zM264.084 243.425c0 32.337 26.947 59.284 64.674 59.284h366.484c32.337 0 59.284-26.947 59.284-59.284s-26.947-59.284-59.284-59.284h-366.484c-32.337-5.389-64.674 26.947-64.674 59.284z" />
<glyph unicode="&#xe909;" glyph-name="facebook" horiz-adv-x="522" d="M522.449 374.422l-172.408 5.224v-464.98h-208.98v464.98h-141.061v193.306h141.061v114.939c0 156.735 41.796 250.776 224.653 250.776h156.735v-193.306h-99.265c-73.143 0-73.143-26.122-73.143-78.367v-94.041h172.408v-198.531z" />
<glyph unicode="&#xe90b;" glyph-name="next" horiz-adv-x="543" d="M10.24 887.467c-10.24 10.24-10.24 30.72 0 40.96 0 10.24 10.24 10.24 20.48 10.24s10.24 0 20.48-10.24l481.28-481.28c10.24-10.24 10.24-30.72 0-40.96l-481.28-481.28c-10.24-10.24-30.72-10.24-40.96 0s-10.24 30.72 0 40.96l460.8 460.8-460.8 460.8z" />
<glyph unicode="&#xe90c;" glyph-name="prev" horiz-adv-x="543" d="M532.48 887.467c10.24 10.24 10.24 30.72 0 40.96s-10.24 10.24-20.48 10.24-10.24 0-20.48-10.24l-481.28-481.28c-10.24-10.24-10.24-30.72 0-40.96l481.28-481.28c10.24-10.24 30.72-10.24 40.96 0s10.24 30.72 0 40.96l-460.8 460.8 460.8 460.8z" />
</font>
</defs>
</svg>
